<svg width="440" height="302" viewBox="0 0 440 302" fill="none" xmlns="http://www.w3.org/2000/svg">
<rect x="75.9178" y="62.5607" width="288.164" height="147.786" fill="#D2DAFF"/>
<rect width="440" height="8.08459" transform="matrix(1 0 0 -1 0 157.312)" fill="#B1B2FF"/>
<rect width="440" height="144.229" transform="matrix(1 0 0 -1 0 301.541)" fill="#D2DAFF"/>
<g filter="url(#filter0_d_27_564)">
<path d="M186.775 2.21731H189.845V13.083H186.775V2.21731ZM182.588 13.083H179.517V2.21731H182.588V13.083ZM186.992 8.84539H182.371V6.29971H186.992V8.84539Z" fill="#D2DAFF"/>
<path d="M197.484 13.3003C196.616 13.3003 195.815 13.1606 195.081 12.8812C194.347 12.6018 193.706 12.2086 193.158 11.7015C192.62 11.1841 192.202 10.5839 191.902 9.90091C191.602 9.21793 191.452 8.46768 191.452 7.65016C191.452 6.83265 191.602 6.0824 191.902 5.39941C192.202 4.71642 192.62 4.1214 193.158 3.61433C193.706 3.09692 194.347 2.69851 195.081 2.41911C195.815 2.1397 196.616 2 197.484 2C198.363 2 199.164 2.1397 199.888 2.41911C200.622 2.69851 201.258 3.09692 201.795 3.61433C202.333 4.1214 202.751 4.71642 203.051 5.39941C203.361 6.0824 203.516 6.83265 203.516 7.65016C203.516 8.46768 203.361 9.2231 203.051 9.91644C202.751 10.5994 202.333 11.1944 201.795 11.7015C201.258 12.2086 200.622 12.6018 199.888 12.8812C199.164 13.1606 198.363 13.3003 197.484 13.3003ZM197.484 10.7546C197.898 10.7546 198.28 10.6822 198.632 10.5373C198.994 10.3925 199.304 10.1855 199.562 9.91644C199.831 9.63703 200.038 9.30589 200.183 8.923C200.338 8.54011 200.415 8.11583 200.415 7.65016C200.415 7.17414 200.338 6.74986 200.183 6.37732C200.038 5.99444 199.831 5.66847 199.562 5.39941C199.304 5.12001 198.994 4.90787 198.632 4.76299C198.28 4.61812 197.898 4.54568 197.484 4.54568C197.071 4.54568 196.683 4.61812 196.321 4.76299C195.97 4.90787 195.66 5.12001 195.391 5.39941C195.133 5.66847 194.926 5.99444 194.771 6.37732C194.626 6.74986 194.554 7.17414 194.554 7.65016C194.554 8.11583 194.626 8.54011 194.771 8.923C194.926 9.30589 195.133 9.63703 195.391 9.91644C195.66 10.1855 195.97 10.3925 196.321 10.5373C196.683 10.6822 197.071 10.7546 197.484 10.7546Z" fill="#D2DAFF"/>
<path d="M208.939 13.3003C208.05 13.3003 207.192 13.1917 206.365 12.9744C205.548 12.7467 204.882 12.4569 204.365 12.1051L205.373 9.83882C205.859 10.1493 206.417 10.408 207.047 10.6149C207.688 10.8116 208.324 10.9099 208.955 10.9099C209.379 10.9099 209.72 10.8737 209.978 10.8012C210.237 10.7184 210.423 10.6149 210.536 10.4908C210.66 10.3562 210.722 10.201 210.722 10.0251C210.722 9.77673 210.609 9.58012 210.381 9.43524C210.154 9.29036 209.859 9.17136 209.497 9.07822C209.136 8.98509 208.732 8.89196 208.288 8.79882C207.854 8.70569 207.414 8.58668 206.97 8.44181C206.536 8.29693 206.138 8.11066 205.776 7.883C205.414 7.64499 205.119 7.33971 204.892 6.96718C204.665 6.58429 204.551 6.10309 204.551 5.52359C204.551 4.87165 204.727 4.2818 205.078 3.75403C205.44 3.22627 205.977 2.80199 206.691 2.4812C207.404 2.1604 208.293 2 209.358 2C210.071 2 210.769 2.08279 211.451 2.24836C212.144 2.40358 212.759 2.63642 213.297 2.94687L212.351 5.22866C211.834 4.94926 211.322 4.74229 210.815 4.60777C210.309 4.46289 209.818 4.39045 209.342 4.39045C208.918 4.39045 208.577 4.43702 208.319 4.53016C208.06 4.61294 207.874 4.72677 207.761 4.87165C207.647 5.01652 207.59 5.1821 207.59 5.36837C207.59 5.60638 207.699 5.79782 207.916 5.9427C208.143 6.07722 208.438 6.19105 208.8 6.28419C209.172 6.36698 209.575 6.45494 210.009 6.54807C210.454 6.6412 210.893 6.76021 211.327 6.90509C211.772 7.03961 212.175 7.22588 212.537 7.46389C212.899 7.69156 213.188 7.99683 213.405 8.37972C213.632 8.75225 213.746 9.2231 213.746 9.79226C213.746 10.4235 213.565 11.0082 213.203 11.5463C212.852 12.0741 212.32 12.4983 211.606 12.8191C210.903 13.1399 210.014 13.3003 208.939 13.3003Z" fill="#D2DAFF"/>
<path d="M215.164 13.083V2.21731H220.127C221.119 2.21731 221.972 2.37771 222.685 2.69851C223.409 3.01931 223.967 3.48498 224.36 4.09553C224.753 4.69573 224.949 5.40976 224.949 6.23762C224.949 7.05514 224.753 7.76399 224.36 8.36419C223.967 8.96439 223.409 9.43007 222.685 9.76121C221.972 10.082 221.119 10.2424 220.127 10.2424H216.87L218.235 8.90748V13.083H215.164ZM218.235 9.23345L216.87 7.82091H219.94C220.581 7.82091 221.057 7.68121 221.367 7.4018C221.688 7.1224 221.848 6.73434 221.848 6.23762C221.848 5.73056 221.688 5.33732 221.367 5.05792C221.057 4.77851 220.581 4.63881 219.94 4.63881H216.87L218.235 3.22627V9.23345Z" fill="#D2DAFF"/>
<path d="M226.446 13.083V2.21731H229.516V13.083H226.446Z" fill="#D2DAFF"/>
<path d="M234.011 13.083V4.65433H230.677V2.21731H240.4V4.65433H237.082V13.083H234.011Z" fill="#D2DAFF"/>
<path d="M239.696 13.083L244.488 2.21731H247.511L252.319 13.083H249.124L245.372 3.72299H246.581L242.828 13.083H239.696ZM242.317 10.972L243.108 8.70569H248.411L249.202 10.972H242.317Z" fill="#D2DAFF"/>
<path d="M253.189 13.083V2.21731H256.259V10.646H261.438V13.083H253.189Z" fill="#D2DAFF"/>
</g>
<g filter="url(#filter1_d_27_564)">
<rect width="288.164" height="5.17414" transform="matrix(1 0 0 -1 75.9178 62.5607)" fill="#B1B2FF"/>
</g>
<rect x="155.389" y="20.1974" width="129.222" height="281.344" fill="#FCFCFC"/>
<rect x="155.389" y="13.7298" width="129.222" height="6.46768" fill="#B1B2FF"/>
<g filter="url(#filter2_d_27_564)">
<rect width="129.222" height="8.08459" transform="matrix(1 0 0 -1 155.389 176.392)" fill="#B1B2FF"/>
</g>
<rect x="75.9178" y="69.9986" width="79.4714" height="79.229" fill="#EEF1FF"/>
<rect x="284.611" y="69.9986" width="79.4714" height="79.229" fill="#EEF1FF"/>
<rect x="65.257" y="76.7896" width="90.1322" height="11.6418" fill="#F5F5F5"/>
<rect x="68.1645" y="78.7299" width="87.2247" height="9.70152" fill="#FCFCFC"/>
<rect width="90.1321" height="11.6418" transform="matrix(-1 0 0 1 374.743 76.7896)" fill="#F5F5F5"/>
<rect width="87.2247" height="9.70152" transform="matrix(-1 0 0 1 371.836 78.7299)" fill="#FCFCFC"/>
<rect width="29.0749" height="4.85076" transform="matrix(-1 0 0 1 284.611 30.5457)" fill="#DAD8D8"/>
<rect width="29.0749" height="4.0423" transform="matrix(-1 0 0 1 284.611 31.3542)" fill="#E8E7E7"/>
<rect width="29.0749" height="4.85076" transform="matrix(-1 0 0 1 184.464 31.1925)" fill="#DAD8D8"/>
<rect width="29.0749" height="4.0423" transform="matrix(-1 0 0 1 184.464 32.001)" fill="#E8E7E7"/>
<rect width="29.0749" height="4.85075" transform="matrix(-1 0 0 1 284.611 55.7697)" fill="#DAD8D8"/>
<rect width="29.0749" height="4.0423" transform="matrix(-1 0 0 1 284.611 56.5781)" fill="#E8E7E7"/>
<rect width="29.0749" height="4.85076" transform="matrix(-1 0 0 1 184.464 56.4164)" fill="#DAD8D8"/>
<rect width="29.0749" height="4.0423" transform="matrix(-1 0 0 1 184.464 57.2249)" fill="#E8E7E7"/>
<rect width="29.0749" height="4.85076" transform="matrix(-1 0 0 1 284.611 93.6056)" fill="#DAD8D8"/>
<rect width="29.0749" height="4.0423" transform="matrix(-1 0 0 1 284.611 94.414)" fill="#E8E7E7"/>
<rect width="29.0749" height="4.85076" transform="matrix(-1 0 0 1 184.464 94.2523)" fill="#DAD8D8"/>
<rect width="29.0749" height="4.0423" transform="matrix(-1 0 0 1 184.464 95.0608)" fill="#E8E7E7"/>
<rect width="29.0749" height="4.85076" transform="matrix(-1 0 0 1 284.611 43.1577)" fill="#DAD8D8"/>
<rect width="29.0749" height="4.0423" transform="matrix(-1 0 0 1 284.611 43.9662)" fill="#E8E7E7"/>
<rect width="29.0749" height="4.85076" transform="matrix(-1 0 0 1 184.464 43.8045)" fill="#DAD8D8"/>
<rect width="29.0749" height="4.0423" transform="matrix(-1 0 0 1 184.464 44.6129)" fill="#E8E7E7"/>
<rect width="29.0749" height="4.85075" transform="matrix(-1 0 0 1 284.611 68.3816)" fill="#DAD8D8"/>
<rect width="29.0749" height="4.0423" transform="matrix(-1 0 0 1 284.611 69.1901)" fill="#E8E7E7"/>
<rect width="29.0749" height="4.85075" transform="matrix(-1 0 0 1 184.464 69.0284)" fill="#DAD8D8"/>
<rect width="29.0749" height="4.0423" transform="matrix(-1 0 0 1 184.464 69.8369)" fill="#E8E7E7"/>
<rect width="29.0749" height="4.85075" transform="matrix(-1 0 0 1 284.611 106.218)" fill="#DAD8D8"/>
<rect width="29.0749" height="4.04229" transform="matrix(-1 0 0 1 284.611 107.026)" fill="#E8E7E7"/>
<rect width="29.0749" height="4.85075" transform="matrix(-1 0 0 1 184.464 106.864)" fill="#DAD8D8"/>
<rect width="29.0749" height="4.0423" transform="matrix(-1 0 0 1 184.464 107.673)" fill="#E8E7E7"/>
<rect width="29.0749" height="4.85075" transform="matrix(-1 0 0 1 284.611 131.441)" fill="#DAD8D8"/>
<rect width="29.0749" height="4.0423" transform="matrix(-1 0 0 1 284.611 132.25)" fill="#E8E7E7"/>
<rect width="29.0749" height="4.85075" transform="matrix(-1 0 0 1 184.464 132.088)" fill="#DAD8D8"/>
<rect width="29.0749" height="4.0423" transform="matrix(-1 0 0 1 184.464 132.897)" fill="#E8E7E7"/>
<rect width="29.0749" height="4.85075" transform="matrix(-1 0 0 1 284.611 80.9936)" fill="#DAD8D8"/>
<rect width="29.0749" height="4.0423" transform="matrix(-1 0 0 1 284.611 81.8021)" fill="#E8E7E7"/>
<rect width="29.0749" height="4.85076" transform="matrix(-1 0 0 1 184.464 81.6404)" fill="#DAD8D8"/>
<rect width="29.0749" height="4.0423" transform="matrix(-1 0 0 1 184.464 82.4488)" fill="#E8E7E7"/>
<rect width="29.0749" height="4.85075" transform="matrix(-1 0 0 1 284.611 118.829)" fill="#DAD8D8"/>
<rect width="29.0749" height="4.0423" transform="matrix(-1 0 0 1 284.611 119.638)" fill="#E8E7E7"/>
<rect width="29.0749" height="4.85075" transform="matrix(-1 0 0 1 184.464 119.476)" fill="#DAD8D8"/>
<rect width="29.0749" height="4.0423" transform="matrix(-1 0 0 1 184.464 120.285)" fill="#E8E7E7"/>
<rect width="90.1321" height="11.6418" transform="matrix(-1 0 0 1 374.743 96.1926)" fill="#F5F5F5"/>
<rect width="87.2247" height="9.70152" transform="matrix(-1 0 0 1 371.836 98.1329)" fill="#FCFCFC"/>
<rect width="90.1321" height="11.6418" transform="matrix(-1 0 0 1 374.743 115.596)" fill="#F5F5F5"/>
<rect width="87.2247" height="9.70152" transform="matrix(-1 0 0 1 371.836 117.536)" fill="#FCFCFC"/>
<rect width="90.1321" height="11.6418" transform="matrix(-1 0 0 1 374.743 134.999)" fill="#F5F5F5"/>
<rect width="87.2247" height="9.70152" transform="matrix(-1 0 0 1 371.836 136.939)" fill="#FCFCFC"/>
<rect x="65.257" y="96.1926" width="90.1322" height="11.6418" fill="#F5F5F5"/>
<rect x="68.1645" y="98.1329" width="87.2247" height="9.70152" fill="#FCFCFC"/>
<rect x="65.257" y="115.596" width="90.1322" height="11.6418" fill="#F5F5F5"/>
<rect x="68.1645" y="117.536" width="87.2247" height="9.70152" fill="#FCFCFC"/>
<rect x="65.257" y="134.999" width="90.1322" height="11.6418" fill="#F5F5F5"/>
<rect x="68.1645" y="136.939" width="87.2247" height="9.70152" fill="#FCFCFC"/>
<path d="M217.739 54.0234V38.6303H222.714V54.0234H217.739ZM212.247 48.6876V43.9662H228.173V48.6876H212.247Z" fill="#DC1111"/>
<path d="M234.414 46.2299C234.414 52.6332 228.463 58.5607 220.162 58.5607C211.86 58.5607 205.909 52.6332 205.909 46.2299C205.909 39.8265 211.86 33.899 220.162 33.899C228.463 33.899 234.414 39.8265 234.414 46.2299Z" stroke="#EEF1FF" stroke-width="8"/>
<rect x="208.693" y="72.909" width="22.6138" height="23.607" fill="#D2DAFF"/>
<rect x="209.662" y="74.2025" width="21.6446" height="22.3135" fill="#EEF1FF"/>
<rect x="208.693" y="104.277" width="22.6138" height="23.607" fill="#D2DAFF"/>
<rect x="209.662" y="105.571" width="21.6446" height="22.3135" fill="#EEF1FF"/>
<rect x="208.693" y="135.645" width="22.6138" height="23.607" fill="#D2DAFF"/>
<rect x="209.662" y="136.939" width="21.6446" height="22.3135" fill="#EEF1FF"/>
<rect x="182.203" y="217.785" width="75.2717" height="83.7564" fill="#B9B9B9"/>
<rect x="182.526" y="218.432" width="74.6255" height="82.7863" fill="#EFF0F4"/>
<rect width="21.8874" height="4.33516" transform="matrix(0.794051 -0.607851 0.60707 0.794649 182.591 231.736)" fill="#F7F7F8"/>
<rect width="51.4815" height="6.77599" transform="matrix(0.794051 -0.607851 0.60707 0.794649 211.75 296.615)" fill="#F7F7F8"/>
<rect width="63.3022" height="6.06991" transform="matrix(0.794051 -0.607851 0.60707 0.794649 183.818 260.144)" fill="#F7F7F8"/>
<rect x="219.354" y="218.432" width="0.646103" height="83.1096" fill="#B9B9B9"/>
<rect x="15.8297" y="183.83" width="122.68" height="15.8458" fill="#B1B2FF"/>
<rect x="19.787" y="186.471" width="118.722" height="13.2048" fill="#EEF1FF"/>
<path d="M41.8355 199.675L47.7687 186.47L46.2727 186.514L40.3817 199.675L41.8355 199.675Z" fill="#F7F7F8"/>
<path d="M115.815 199.63L121.748 186.424L120.252 186.469L114.361 199.63L115.815 199.63Z" fill="#F7F7F8"/>
<path d="M49.5889 186.417L52.0118 186.417L46.5198 199.675L44.2008 199.652L49.5889 186.417Z" fill="#F7F7F8"/>
<path d="M123.626 186.414L126.049 186.414L120.557 199.672L118.238 199.649L123.626 186.414Z" fill="#F7F7F8"/>
<rect x="301.41" y="185.77" width="122.68" height="15.8458" fill="#B1B2FF"/>
<rect x="305.367" y="188.411" width="118.722" height="13.2048" fill="#EEF1FF"/>
<path d="M327.416 201.616L333.349 188.41L331.853 188.455L325.962 201.616L327.416 201.616Z" fill="#F7F7F8"/>
<path d="M401.395 201.57L407.328 188.364L405.832 188.409L399.941 201.57L401.395 201.57Z" fill="#F7F7F8"/>
<path d="M335.169 188.357L337.592 188.357L332.1 201.616L329.781 201.593L335.169 188.357Z" fill="#F7F7F8"/>
<path d="M409.206 188.354L411.629 188.354L406.137 201.613L403.818 201.59L409.206 188.354Z" fill="#F7F7F8"/>
<rect x="15.8297" y="216.045" width="122.68" height="15.8458" fill="#B1B2FF"/>
<rect x="19.787" y="218.686" width="118.722" height="13.2048" fill="#EEF1FF"/>
<path d="M41.8355 231.891L47.7687 218.685L46.2727 218.73L40.3817 231.891L41.8355 231.891Z" fill="#F7F7F8"/>
<path d="M115.815 231.845L121.748 218.639L120.252 218.684L114.361 231.845L115.815 231.845Z" fill="#F7F7F8"/>
<path d="M49.5889 218.632L52.0118 218.632L46.5198 231.891L44.2008 231.868L49.5889 218.632Z" fill="#F7F7F8"/>
<path d="M123.626 218.629L126.049 218.629L120.557 231.888L118.238 231.865L123.626 218.629Z" fill="#F7F7F8"/>
<rect x="301.41" y="217.985" width="122.68" height="15.8458" fill="#B1B2FF"/>
<rect x="305.367" y="220.626" width="118.722" height="13.2048" fill="#EEF1FF"/>
<path d="M327.416 233.831L333.349 220.625L331.853 220.67L325.962 233.831L327.416 233.831Z" fill="#F7F7F8"/>
<path d="M401.395 233.785L407.328 220.579L405.832 220.624L399.941 233.785L401.395 233.785Z" fill="#F7F7F8"/>
<path d="M335.169 220.572L337.592 220.572L332.1 233.831L329.781 233.808L335.169 220.572Z" fill="#F7F7F8"/>
<path d="M409.206 220.569L411.629 220.569L406.137 233.828L403.818 233.805L409.206 220.569Z" fill="#F7F7F8"/>
<rect x="15.8297" y="248.26" width="122.68" height="15.8458" fill="#B1B2FF"/>
<rect x="19.787" y="250.901" width="118.722" height="13.2048" fill="#EEF1FF"/>
<path d="M41.8355 264.106L47.7687 250.9L46.2727 250.945L40.3817 264.106L41.8355 264.106Z" fill="#F7F7F8"/>
<path d="M115.815 264.06L121.748 250.854L120.252 250.899L114.361 264.06L115.815 264.06Z" fill="#F7F7F8"/>
<path d="M49.5889 250.847L52.0118 250.847L46.5198 264.106L44.2008 264.083L49.5889 250.847Z" fill="#F7F7F8"/>
<path d="M123.626 250.844L126.049 250.844L120.557 264.103L118.238 264.08L123.626 250.844Z" fill="#F7F7F8"/>
<rect x="301.41" y="250.2" width="122.68" height="15.8458" fill="#B1B2FF"/>
<rect x="305.367" y="252.841" width="118.722" height="13.2048" fill="#EEF1FF"/>
<path d="M327.416 266.046L333.349 252.84L331.853 252.885L325.962 266.046L327.416 266.046Z" fill="#F7F7F8"/>
<path d="M401.395 266.001L407.328 252.795L405.832 252.84L399.941 266.001L401.395 266.001Z" fill="#F7F7F8"/>
<path d="M335.169 252.787L337.592 252.787L332.1 266.046L329.781 266.023L335.169 252.787Z" fill="#F7F7F8"/>
<path d="M409.206 252.784L411.629 252.784L406.137 266.043L403.818 266.02L409.206 252.784Z" fill="#F7F7F8"/>
<defs>
<filter id="filter0_d_27_564" x="178.517" y="0" width="93.9211" height="23.3003" filterUnits="userSpaceOnUse" color-interpolation-filters="sRGB">
<feFlood flood-opacity="0" result="BackgroundImageFix"/>
<feColorMatrix in="SourceAlpha" type="matrix" values="0 0 0 0 0 0 0 0 0 0 0 0 0 0 0 0 0 0 127 0" result="hardAlpha"/>
<feOffset dx="5" dy="4"/>
<feGaussianBlur stdDeviation="3"/>
<feComposite in2="hardAlpha" operator="out"/>
<feColorMatrix type="matrix" values="0 0 0 0 0 0 0 0 0 0 0 0 0 0 0 0 0 0 1 0"/>
<feBlend mode="normal" in2="BackgroundImageFix" result="effect1_dropShadow_27_564"/>
<feBlend mode="normal" in="SourceGraphic" in2="effect1_dropShadow_27_564" result="shape"/>
</filter>
<filter id="filter1_d_27_564" x="71.9178" y="57.3866" width="296.164" height="16.1741" filterUnits="userSpaceOnUse" color-interpolation-filters="sRGB">
<feFlood flood-opacity="0" result="BackgroundImageFix"/>
<feColorMatrix in="SourceAlpha" type="matrix" values="0 0 0 0 0 0 0 0 0 0 0 0 0 0 0 0 0 0 127 0" result="hardAlpha"/>
<feOffset dy="7"/>
<feGaussianBlur stdDeviation="2"/>
<feComposite in2="hardAlpha" operator="out"/>
<feColorMatrix type="matrix" values="0 0 0 0 0 0 0 0 0 0 0 0 0 0 0 0 0 0 0.44 0"/>
<feBlend mode="normal" in2="BackgroundImageFix" result="effect1_dropShadow_27_564"/>
<feBlend mode="normal" in="SourceGraphic" in2="effect1_dropShadow_27_564" result="shape"/>
</filter>
<filter id="filter2_d_27_564" x="151.389" y="168.307" width="137.222" height="19.0846" filterUnits="userSpaceOnUse" color-interpolation-filters="sRGB">
<feFlood flood-opacity="0" result="BackgroundImageFix"/>
<feColorMatrix in="SourceAlpha" type="matrix" values="0 0 0 0 0 0 0 0 0 0 0 0 0 0 0 0 0 0 127 0" result="hardAlpha"/>
<feOffset dy="7"/>
<feGaussianBlur stdDeviation="2"/>
<feComposite in2="hardAlpha" operator="out"/>
<feColorMatrix type="matrix" values="0 0 0 0 0 0 0 0 0 0 0 0 0 0 0 0 0 0 0.6 0"/>
<feBlend mode="normal" in2="BackgroundImageFix" result="effect1_dropShadow_27_564"/>
<feBlend mode="normal" in="SourceGraphic" in2="effect1_dropShadow_27_564" result="shape"/>
</filter>
</defs>
</svg>
