<svg width="54" height="44" viewBox="0 0 54 44" fill="none" xmlns="http://www.w3.org/2000/svg">
<rect x="9.3172" y="10.4785" width="35.3656" height="20.6901" fill="#D2DAFF"/>
<rect width="54" height="1.13184" transform="matrix(1 0 0 -1 0 23.7437)" fill="#B1B2FF"/>
<rect width="54" height="20.1921" transform="matrix(1 0 0 -1 0 43.9358)" fill="#D2DAFF"/>
<g filter="url(#filter0_d_35_476)">
<path d="M22.9223 2.03042H23.2991V3.55162H22.9223V2.03042ZM22.4085 3.55162H22.0317V2.03042H22.4085V3.55162ZM22.949 2.95835H22.3818V2.60196H22.949V2.95835Z" fill="#D2DAFF"/>
<path d="M24.2367 3.58205C24.1301 3.58205 24.0318 3.56249 23.9417 3.52337C23.8517 3.48425 23.773 3.4292 23.7058 3.35821C23.6398 3.28577 23.5884 3.20175 23.5516 3.10613C23.5148 3.01051 23.4964 2.90547 23.4964 2.79102C23.4964 2.67657 23.5148 2.57154 23.5516 2.47592C23.5884 2.3803 23.6398 2.297 23.7058 2.22601C23.773 2.15357 23.8517 2.09779 23.9417 2.05867C24.0318 2.01956 24.1301 2 24.2367 2C24.3446 2 24.4429 2.01956 24.5317 2.05867C24.6218 2.09779 24.6998 2.15357 24.7658 2.22601C24.8317 2.297 24.8831 2.3803 24.9199 2.47592C24.958 2.57154 24.977 2.67657 24.977 2.79102C24.977 2.90547 24.958 3.01123 24.9199 3.1083C24.8831 3.20392 24.8317 3.28722 24.7658 3.35821C24.6998 3.4292 24.6218 3.48425 24.5317 3.52337C24.4429 3.56249 24.3446 3.58205 24.2367 3.58205ZM24.2367 3.22565C24.2875 3.22565 24.3344 3.21551 24.3775 3.19523C24.4219 3.17494 24.46 3.14597 24.4917 3.1083C24.5247 3.06918 24.5501 3.02282 24.5678 2.96922C24.5869 2.91562 24.5964 2.85622 24.5964 2.79102C24.5964 2.72438 24.5869 2.66498 24.5678 2.61283C24.5501 2.55922 24.5247 2.51359 24.4917 2.47592C24.46 2.4368 24.4219 2.4071 24.3775 2.38682C24.3344 2.36654 24.2875 2.35639 24.2367 2.35639C24.186 2.35639 24.1384 2.36654 24.094 2.38682C24.0508 2.4071 24.0128 2.4368 23.9798 2.47592C23.9481 2.51359 23.9227 2.55922 23.9037 2.61283C23.8859 2.66498 23.877 2.72438 23.877 2.79102C23.877 2.85622 23.8859 2.91562 23.9037 2.96922C23.9227 3.02282 23.9481 3.06918 23.9798 3.1083C24.0128 3.14597 24.0508 3.17494 24.094 3.19523C24.1384 3.21551 24.186 3.22565 24.2367 3.22565Z" fill="#D2DAFF"/>
<path d="M25.6425 3.58205C25.5334 3.58205 25.4281 3.56683 25.3266 3.53641C25.2264 3.50454 25.1446 3.46397 25.0811 3.41471L25.2048 3.09744C25.2644 3.1409 25.333 3.17712 25.4103 3.20609C25.489 3.23362 25.567 3.24738 25.6444 3.24738C25.6964 3.24738 25.7383 3.24231 25.77 3.23217C25.8018 3.22058 25.8246 3.20609 25.8385 3.18871C25.8538 3.16987 25.8614 3.14814 25.8614 3.12351C25.8614 3.08874 25.8474 3.06122 25.8195 3.04093C25.7916 3.02065 25.7554 3.00399 25.711 2.99095C25.6666 2.97791 25.6172 2.96487 25.5626 2.95183C25.5093 2.9388 25.4554 2.92214 25.4008 2.90185C25.3475 2.88157 25.2987 2.85549 25.2543 2.82362C25.2099 2.7903 25.1737 2.74756 25.1458 2.6954C25.1179 2.6418 25.104 2.57443 25.104 2.4933C25.104 2.40203 25.1255 2.31945 25.1687 2.24556C25.2131 2.17168 25.279 2.11228 25.3666 2.06737C25.4541 2.02246 25.5632 2 25.6939 2C25.7815 2 25.8671 2.01159 25.9508 2.03477C26.0358 2.0565 26.1113 2.0891 26.1773 2.13256L26.0612 2.45201C25.9978 2.4129 25.935 2.38392 25.8728 2.36509C25.8106 2.3448 25.7504 2.33466 25.692 2.33466C25.64 2.33466 25.5981 2.34118 25.5664 2.35422C25.5347 2.36581 25.5118 2.38175 25.4979 2.40203C25.4839 2.42231 25.477 2.44549 25.477 2.47157C25.477 2.50489 25.4903 2.53169 25.5169 2.55198C25.5448 2.57081 25.581 2.58675 25.6254 2.59979C25.6711 2.61138 25.7206 2.62369 25.7738 2.63673C25.8284 2.64977 25.8823 2.66643 25.9356 2.68671C25.9902 2.70555 26.0396 2.73162 26.084 2.76495C26.1284 2.79682 26.164 2.83956 26.1906 2.89316C26.2185 2.94532 26.2325 3.01123 26.2325 3.09092C26.2325 3.17929 26.2103 3.26115 26.1659 3.33648C26.1227 3.41037 26.0574 3.46977 25.9699 3.51468C25.8836 3.55959 25.7745 3.58205 25.6425 3.58205Z" fill="#D2DAFF"/>
<path d="M26.4065 3.55162V2.03042H27.0155C27.1373 2.03042 27.242 2.05288 27.3295 2.09779C27.4183 2.1427 27.4869 2.2079 27.5351 2.29337C27.5833 2.3774 27.6074 2.47737 27.6074 2.59327C27.6074 2.70772 27.5833 2.80696 27.5351 2.89099C27.4869 2.97502 27.4183 3.04021 27.3295 3.08657C27.242 3.13148 27.1373 3.15394 27.0155 3.15394H26.6159L26.7833 2.96705V3.55162H26.4065ZM26.7833 3.01268L26.6159 2.81493H26.9927C27.0714 2.81493 27.1297 2.79537 27.1678 2.75625C27.2071 2.71714 27.2268 2.66281 27.2268 2.59327C27.2268 2.52228 27.2071 2.46722 27.1678 2.42811C27.1297 2.38899 27.0714 2.36943 26.9927 2.36943H26.6159L26.7833 2.17168V3.01268Z" fill="#D2DAFF"/>
<path d="M27.7911 3.55162V2.03042H28.1679V3.55162H27.7911Z" fill="#D2DAFF"/>
<path d="M28.7196 3.55162V2.37161H28.3104V2.03042H29.5036V2.37161H29.0964V3.55162H28.7196Z" fill="#D2DAFF"/>
<path d="M29.4172 3.55162L30.0053 2.03042H30.3764L30.9664 3.55162H30.5743L30.1138 2.24122H30.2622L29.8017 3.55162H29.4172ZM29.7389 3.25607L29.8359 2.9388H30.4868L30.5838 3.25607H29.7389Z" fill="#D2DAFF"/>
<path d="M31.0732 3.55162V2.03042H31.45V3.21044H32.0856V3.55162H31.0732Z" fill="#D2DAFF"/>
</g>
<g filter="url(#filter1_d_35_476)">
<rect width="35.3656" height="0.72438" transform="matrix(1 0 0 -1 9.3172 10.4785)" fill="#B1B2FF"/>
</g>
<rect x="19.0705" y="4.54764" width="15.859" height="39.3881" fill="#FCFCFC"/>
<rect x="19.0705" y="3.64218" width="15.859" height="0.905475" fill="#B1B2FF"/>
<g filter="url(#filter2_d_35_476)">
<rect width="15.859" height="1.13184" transform="matrix(1 0 0 -1 19.0705 26.4149)" fill="#B1B2FF"/>
</g>
<rect x="9.3172" y="11.5198" width="9.7533" height="11.0921" fill="#EEF1FF"/>
<rect x="34.9295" y="11.5198" width="9.7533" height="11.0921" fill="#EEF1FF"/>
<rect x="8.00879" y="12.4706" width="11.0617" height="1.62985" fill="#F5F5F5"/>
<rect x="8.3656" y="12.7422" width="10.7048" height="1.35821" fill="#FCFCFC"/>
<rect width="11.0617" height="1.62985" transform="matrix(-1 0 0 1 45.9912 12.4706)" fill="#F5F5F5"/>
<rect width="10.7048" height="1.35821" transform="matrix(-1 0 0 1 45.6344 12.7422)" fill="#FCFCFC"/>
<rect width="3.56828" height="0.679106" transform="matrix(-1 0 0 1 34.9295 5.9964)" fill="#DAD8D8"/>
<rect width="3.56828" height="0.565922" transform="matrix(-1 0 0 1 34.9295 6.10959)" fill="#E8E7E7"/>
<rect width="3.56828" height="0.679106" transform="matrix(-1 0 0 1 22.6388 6.08694)" fill="#DAD8D8"/>
<rect width="3.56828" height="0.565922" transform="matrix(-1 0 0 1 22.6388 6.20013)" fill="#E8E7E7"/>
<rect width="3.56828" height="0.679106" transform="matrix(-1 0 0 1 34.9295 9.52774)" fill="#DAD8D8"/>
<rect width="3.56828" height="0.565922" transform="matrix(-1 0 0 1 34.9295 9.64093)" fill="#E8E7E7"/>
<rect width="3.56828" height="0.679106" transform="matrix(-1 0 0 1 22.6388 9.61829)" fill="#DAD8D8"/>
<rect width="3.56828" height="0.565922" transform="matrix(-1 0 0 1 22.6388 9.73148)" fill="#E8E7E7"/>
<rect width="3.56828" height="0.679106" transform="matrix(-1 0 0 1 34.9295 14.8248)" fill="#DAD8D8"/>
<rect width="3.56828" height="0.565922" transform="matrix(-1 0 0 1 34.9295 14.938)" fill="#E8E7E7"/>
<rect width="3.56828" height="0.679106" transform="matrix(-1 0 0 1 22.6388 14.9153)" fill="#DAD8D8"/>
<rect width="3.56828" height="0.565921" transform="matrix(-1 0 0 1 22.6388 15.0285)" fill="#E8E7E7"/>
<rect width="3.56828" height="0.679106" transform="matrix(-1 0 0 1 34.9295 7.76208)" fill="#DAD8D8"/>
<rect width="3.56828" height="0.565922" transform="matrix(-1 0 0 1 34.9295 7.87527)" fill="#E8E7E7"/>
<rect width="3.56828" height="0.679106" transform="matrix(-1 0 0 1 22.6388 7.85263)" fill="#DAD8D8"/>
<rect width="3.56828" height="0.565922" transform="matrix(-1 0 0 1 22.6388 7.96582)" fill="#E8E7E7"/>
<rect width="3.56828" height="0.679106" transform="matrix(-1 0 0 1 34.9295 11.2934)" fill="#DAD8D8"/>
<rect width="3.56828" height="0.565922" transform="matrix(-1 0 0 1 34.9295 11.4066)" fill="#E8E7E7"/>
<rect width="3.56828" height="0.679107" transform="matrix(-1 0 0 1 22.6388 11.384)" fill="#DAD8D8"/>
<rect width="3.56828" height="0.565922" transform="matrix(-1 0 0 1 22.6388 11.4972)" fill="#E8E7E7"/>
<rect width="3.56828" height="0.679106" transform="matrix(-1 0 0 1 34.9295 16.5905)" fill="#DAD8D8"/>
<rect width="3.56828" height="0.565921" transform="matrix(-1 0 0 1 34.9295 16.7036)" fill="#E8E7E7"/>
<rect width="3.56828" height="0.679107" transform="matrix(-1 0 0 1 22.6388 16.681)" fill="#DAD8D8"/>
<rect width="3.56828" height="0.565921" transform="matrix(-1 0 0 1 22.6388 16.7942)" fill="#E8E7E7"/>
<rect width="3.56828" height="0.679106" transform="matrix(-1 0 0 1 34.9295 20.1218)" fill="#DAD8D8"/>
<rect width="3.56828" height="0.565922" transform="matrix(-1 0 0 1 34.9295 20.235)" fill="#E8E7E7"/>
<rect width="3.56828" height="0.679106" transform="matrix(-1 0 0 1 22.6388 20.2123)" fill="#DAD8D8"/>
<rect width="3.56828" height="0.565922" transform="matrix(-1 0 0 1 22.6388 20.3255)" fill="#E8E7E7"/>
<rect width="3.56828" height="0.679106" transform="matrix(-1 0 0 1 34.9295 13.0591)" fill="#DAD8D8"/>
<rect width="3.56828" height="0.565922" transform="matrix(-1 0 0 1 34.9295 13.1723)" fill="#E8E7E7"/>
<rect width="3.56828" height="0.679106" transform="matrix(-1 0 0 1 22.6388 13.1497)" fill="#DAD8D8"/>
<rect width="3.56828" height="0.565922" transform="matrix(-1 0 0 1 22.6388 13.2628)" fill="#E8E7E7"/>
<rect width="3.56828" height="0.679106" transform="matrix(-1 0 0 1 34.9295 18.3561)" fill="#DAD8D8"/>
<rect width="3.56828" height="0.565922" transform="matrix(-1 0 0 1 34.9295 18.4693)" fill="#E8E7E7"/>
<rect width="3.56828" height="0.679106" transform="matrix(-1 0 0 1 22.6388 18.4467)" fill="#DAD8D8"/>
<rect width="3.56828" height="0.565922" transform="matrix(-1 0 0 1 22.6388 18.5599)" fill="#E8E7E7"/>
<rect width="11.0617" height="1.62985" transform="matrix(-1 0 0 1 45.9912 15.187)" fill="#F5F5F5"/>
<rect width="10.7048" height="1.35821" transform="matrix(-1 0 0 1 45.6344 15.4586)" fill="#FCFCFC"/>
<rect width="11.0617" height="1.62985" transform="matrix(-1 0 0 1 45.9912 17.9034)" fill="#F5F5F5"/>
<rect width="10.7048" height="1.35821" transform="matrix(-1 0 0 1 45.6344 18.175)" fill="#FCFCFC"/>
<rect width="11.0617" height="1.62985" transform="matrix(-1 0 0 1 45.9912 20.6198)" fill="#F5F5F5"/>
<rect width="10.7048" height="1.35821" transform="matrix(-1 0 0 1 45.6344 20.8914)" fill="#FCFCFC"/>
<rect x="8.00879" y="15.187" width="11.0617" height="1.62985" fill="#F5F5F5"/>
<rect x="8.3656" y="15.4586" width="10.7048" height="1.35821" fill="#FCFCFC"/>
<rect x="8.00879" y="17.9034" width="11.0617" height="1.62985" fill="#F5F5F5"/>
<rect x="8.3656" y="18.175" width="10.7048" height="1.35821" fill="#FCFCFC"/>
<rect x="8.00879" y="20.6198" width="11.0617" height="1.62985" fill="#F5F5F5"/>
<rect x="8.3656" y="20.8914" width="10.7048" height="1.35821" fill="#FCFCFC"/>
<path d="M26.7225 9.28326V7.12823H27.333V9.28326H26.7225ZM26.0485 8.53625V7.87525H28.0031V8.53625H26.0485Z" fill="#DC1111"/>
<rect x="25.6123" y="11.9272" width="2.77533" height="3.30498" fill="#D2DAFF"/>
<rect x="25.7313" y="12.1083" width="2.65639" height="3.12389" fill="#EEF1FF"/>
<rect x="25.6123" y="16.3188" width="2.77533" height="3.30498" fill="#D2DAFF"/>
<rect x="25.7313" y="16.4999" width="2.65639" height="3.12389" fill="#EEF1FF"/>
<rect x="25.6123" y="20.7104" width="2.77533" height="3.30498" fill="#D2DAFF"/>
<rect x="25.7313" y="20.8914" width="2.65639" height="3.12389" fill="#EEF1FF"/>
<rect x="22.3612" y="32.2099" width="9.23789" height="11.7259" fill="#B9B9B9"/>
<rect x="22.4009" y="32.3004" width="9.15859" height="11.5901" fill="#EFF0F4"/>
<rect width="2.83175" height="0.580451" transform="matrix(0.753232 -0.657755 0.55644 0.830888 22.4089 34.163)" fill="#F7F7F8"/>
<rect width="6.66059" height="0.907264" transform="matrix(0.753232 -0.657755 0.556441 0.830887 25.9874 43.2462)" fill="#F7F7F8"/>
<rect width="8.18993" height="0.812724" transform="matrix(0.753232 -0.657755 0.55644 0.830887 22.5594 38.1401)" fill="#F7F7F8"/>
<rect x="26.9207" y="32.3004" width="0.0792942" height="11.6353" fill="#B9B9B9"/>
<rect x="1.94275" y="27.4561" width="15.0562" height="2.21841" fill="#B1B2FF"/>
<rect x="2.42841" y="27.8259" width="14.5705" height="1.84868" fill="#EEF1FF"/>
<path d="M5.13436 29.6746L5.86252 27.8257L5.67892 27.832L4.95594 29.6746L5.13436 29.6746Z" fill="#F7F7F8"/>
<path d="M14.2137 29.6682L14.9419 27.8194L14.7583 27.8256L14.0353 29.6682L14.2137 29.6682Z" fill="#F7F7F8"/>
<path d="M6.08592 27.8183L6.38328 27.8183L5.70927 29.6746L5.42466 29.6713L6.08592 27.8183Z" fill="#F7F7F8"/>
<path d="M15.1723 27.8179L15.4696 27.8179L14.7956 29.6741L14.511 29.6709L15.1723 27.8179Z" fill="#F7F7F8"/>
<rect x="36.9912" y="27.7278" width="15.0562" height="2.21841" fill="#B1B2FF"/>
<rect x="37.4769" y="28.0975" width="14.5705" height="1.84868" fill="#EEF1FF"/>
<path d="M40.1828 29.9462L40.911 28.0974L40.7274 28.1037L40.0044 29.9462L40.1828 29.9462Z" fill="#F7F7F8"/>
<path d="M49.2621 29.9398L49.9903 28.091L49.8067 28.0973L49.0837 29.9398L49.2621 29.9398Z" fill="#F7F7F8"/>
<path d="M41.1344 28.09L41.4317 28.09L40.7577 29.9462L40.4731 29.943L41.1344 28.09Z" fill="#F7F7F8"/>
<path d="M50.2207 28.0896L50.5181 28.0896L49.8441 29.9458L49.5595 29.9425L50.2207 28.0896Z" fill="#F7F7F8"/>
<rect x="1.94275" y="31.9663" width="15.0562" height="2.21841" fill="#B1B2FF"/>
<rect x="2.42841" y="32.336" width="14.5705" height="1.84868" fill="#EEF1FF"/>
<path d="M5.13436 34.1847L5.86252 32.3359L5.67892 32.3421L4.95594 34.1847L5.13436 34.1847Z" fill="#F7F7F8"/>
<path d="M14.2137 34.1783L14.9419 32.3295L14.7583 32.3358L14.0353 34.1783L14.2137 34.1783Z" fill="#F7F7F8"/>
<path d="M6.08592 32.3285L6.38328 32.3285L5.70927 34.1847L5.42466 34.1815L6.08592 32.3285Z" fill="#F7F7F8"/>
<path d="M15.1723 32.328L15.4696 32.328L14.7956 34.1843L14.511 34.181L15.1723 32.328Z" fill="#F7F7F8"/>
<rect x="36.9912" y="32.2379" width="15.0562" height="2.21841" fill="#B1B2FF"/>
<rect x="37.4769" y="32.6077" width="14.5705" height="1.84867" fill="#EEF1FF"/>
<path d="M40.1828 34.4563L40.911 32.6075L40.7274 32.6138L40.0044 34.4563L40.1828 34.4563Z" fill="#F7F7F8"/>
<path d="M49.2621 34.4499L49.9903 32.6011L49.8067 32.6074L49.0837 34.4499L49.2621 34.4499Z" fill="#F7F7F8"/>
<path d="M41.1344 32.6001L41.4317 32.6001L40.7577 34.4563L40.4731 34.4531L41.1344 32.6001Z" fill="#F7F7F8"/>
<path d="M50.2207 32.5997L50.5181 32.5997L49.8441 34.4559L49.5595 34.4527L50.2207 32.5997Z" fill="#F7F7F8"/>
<rect x="1.94275" y="36.4764" width="15.0562" height="2.21841" fill="#B1B2FF"/>
<rect x="2.42841" y="36.8462" width="14.5705" height="1.84867" fill="#EEF1FF"/>
<path d="M5.13436 38.6948L5.86252 36.846L5.67892 36.8523L4.95594 38.6948L5.13436 38.6948Z" fill="#F7F7F8"/>
<path d="M14.2137 38.6884L14.9419 36.8396L14.7583 36.8459L14.0353 38.6884L14.2137 38.6884Z" fill="#F7F7F8"/>
<path d="M6.08592 36.8386L6.38328 36.8386L5.70927 38.6948L5.42466 38.6916L6.08592 36.8386Z" fill="#F7F7F8"/>
<path d="M15.1723 36.8382L15.4696 36.8382L14.7956 38.6944L14.511 38.6912L15.1723 36.8382Z" fill="#F7F7F8"/>
<rect x="36.9912" y="36.748" width="15.0562" height="2.21841" fill="#B1B2FF"/>
<rect x="37.4769" y="37.1178" width="14.5705" height="1.84868" fill="#EEF1FF"/>
<path d="M40.1828 38.9665L40.911 37.1176L40.7274 37.1239L40.0044 38.9665L40.1828 38.9665Z" fill="#F7F7F8"/>
<path d="M49.2621 38.9601L49.9903 37.1113L49.8067 37.1175L49.0837 38.9601L49.2621 38.9601Z" fill="#F7F7F8"/>
<path d="M41.1344 37.1102L41.4317 37.1102L40.7577 38.9665L40.4731 38.9632L41.1344 37.1102Z" fill="#F7F7F8"/>
<path d="M50.2207 37.1098L50.5181 37.1098L49.8441 38.966L49.5595 38.9628L50.2207 37.1098Z" fill="#F7F7F8"/>
<defs>
<filter id="filter0_d_35_476" x="21.0317" y="0" width="22.054" height="13.582" filterUnits="userSpaceOnUse" color-interpolation-filters="sRGB">
<feFlood flood-opacity="0" result="BackgroundImageFix"/>
<feColorMatrix in="SourceAlpha" type="matrix" values="0 0 0 0 0 0 0 0 0 0 0 0 0 0 0 0 0 0 127 0" result="hardAlpha"/>
<feOffset dx="5" dy="4"/>
<feGaussianBlur stdDeviation="3"/>
<feComposite in2="hardAlpha" operator="out"/>
<feColorMatrix type="matrix" values="0 0 0 0 0 0 0 0 0 0 0 0 0 0 0 0 0 0 1 0"/>
<feBlend mode="normal" in2="BackgroundImageFix" result="effect1_dropShadow_35_476"/>
<feBlend mode="normal" in="SourceGraphic" in2="effect1_dropShadow_35_476" result="shape"/>
</filter>
<filter id="filter1_d_35_476" x="5.3172" y="9.75415" width="43.3657" height="11.7244" filterUnits="userSpaceOnUse" color-interpolation-filters="sRGB">
<feFlood flood-opacity="0" result="BackgroundImageFix"/>
<feColorMatrix in="SourceAlpha" type="matrix" values="0 0 0 0 0 0 0 0 0 0 0 0 0 0 0 0 0 0 127 0" result="hardAlpha"/>
<feOffset dy="7"/>
<feGaussianBlur stdDeviation="2"/>
<feComposite in2="hardAlpha" operator="out"/>
<feColorMatrix type="matrix" values="0 0 0 0 0 0 0 0 0 0 0 0 0 0 0 0 0 0 0.44 0"/>
<feBlend mode="normal" in2="BackgroundImageFix" result="effect1_dropShadow_35_476"/>
<feBlend mode="normal" in="SourceGraphic" in2="effect1_dropShadow_35_476" result="shape"/>
</filter>
<filter id="filter2_d_35_476" x="15.0705" y="25.283" width="23.859" height="12.1318" filterUnits="userSpaceOnUse" color-interpolation-filters="sRGB">
<feFlood flood-opacity="0" result="BackgroundImageFix"/>
<feColorMatrix in="SourceAlpha" type="matrix" values="0 0 0 0 0 0 0 0 0 0 0 0 0 0 0 0 0 0 127 0" result="hardAlpha"/>
<feOffset dy="7"/>
<feGaussianBlur stdDeviation="2"/>
<feComposite in2="hardAlpha" operator="out"/>
<feColorMatrix type="matrix" values="0 0 0 0 0 0 0 0 0 0 0 0 0 0 0 0 0 0 0.6 0"/>
<feBlend mode="normal" in2="BackgroundImageFix" result="effect1_dropShadow_35_476"/>
<feBlend mode="normal" in="SourceGraphic" in2="effect1_dropShadow_35_476" result="shape"/>
</filter>
</defs>
</svg>
